<svg width="800" height="800" viewBox="0 0 800 800" fill="none" xmlns="http://www.w3.org/2000/svg">
<rect width="800" height="800" rx="28" fill="white"/>
<path d="M380.022 269.982C391.065 258.939 408.97 258.939 420.013 269.982L530.028 379.993C541.071 391.036 541.071 408.94 530.028 419.983L420.013 529.994C408.97 541.037 391.065 541.037 380.022 529.994L270.008 419.983C258.964 408.94 258.964 391.036 270.008 379.993L380.022 269.982Z" fill="black"/>
<path d="M539.994 484.962C545.516 479.441 554.468 479.441 559.989 484.962L614.995 539.966C620.517 545.487 620.517 554.439 614.995 559.96L559.989 614.964C554.468 620.486 545.516 620.486 539.994 614.964L484.988 559.96C479.467 554.439 479.467 545.487 484.988 539.966L539.994 484.962Z" fill="black"/>
<path d="M314.876 539.84C320.468 545.432 320.468 554.498 314.876 560.09L260.126 614.839C254.534 620.43 245.467 620.43 239.875 614.839L185.125 560.09C179.533 554.498 179.533 545.432 185.125 539.84L239.875 485.091C245.467 479.5 254.534 479.5 260.126 485.091L314.876 539.84Z" fill="black"/>
<path d="M404.893 170.123C402.2 172.816 397.835 172.816 395.143 170.123L367.392 142.374C364.7 139.682 364.7 135.317 367.392 132.624L395.143 104.875C397.835 102.182 402.2 102.182 404.893 104.875L432.643 132.624C435.335 135.317 435.335 139.682 432.643 142.374L404.893 170.123Z" fill="black"/>
<path d="M239.876 185.123C245.468 179.531 254.535 179.531 260.127 185.123L314.877 239.872C320.469 245.464 320.469 254.53 314.877 260.122L260.127 314.87C254.535 320.462 245.468 320.462 239.876 314.87L185.126 260.122C179.534 254.53 179.534 245.464 185.126 239.872L239.876 185.123Z" fill="black"/>
<path d="M614.874 239.862C620.466 245.454 620.466 254.52 614.874 260.112L560.124 314.861C554.532 320.453 545.465 320.453 539.873 314.861L485.123 260.112C479.531 254.52 479.531 245.454 485.123 239.862L539.874 185.113C545.465 179.522 554.532 179.522 560.124 185.113L614.874 239.862Z" fill="black"/>
<path d="M367.517 667.499C364.756 664.739 364.756 660.263 367.517 657.502L395.02 630C397.78 627.239 402.257 627.239 405.017 630L432.52 657.502C435.281 660.263 435.281 664.739 432.52 667.499L405.017 695.001C402.257 697.762 397.78 697.762 395.02 695.001L367.517 667.499Z" fill="black"/>
</svg>
